<?xml version="1.0" encoding="utf-8" standalone="no"?>
<!DOCTYPE svg PUBLIC "-//W3C//DTD SVG 1.1//EN"
  "http://www.w3.org/Graphics/SVG/1.1/DTD/svg11.dtd">
<!-- Created with matplotlib (https://matplotlib.org/) -->
<svg height="269.93875pt" version="1.1" viewBox="0 0 412.234063 269.93875" width="412.234063pt" xmlns="http://www.w3.org/2000/svg" xmlns:xlink="http://www.w3.org/1999/xlink">
 <metadata>
  <rdf:RDF xmlns:cc="http://creativecommons.org/ns#" xmlns:dc="http://purl.org/dc/elements/1.1/" xmlns:rdf="http://www.w3.org/1999/02/22-rdf-syntax-ns#">
   <cc:Work>
    <dc:type rdf:resource="http://purl.org/dc/dcmitype/StillImage"/>
    <dc:date>2021-06-12T19:50:16.522300</dc:date>
    <dc:format>image/svg+xml</dc:format>
    <dc:creator>
     <cc:Agent>
      <dc:title>Matplotlib v3.3.2, https://matplotlib.org/</dc:title>
     </cc:Agent>
    </dc:creator>
   </cc:Work>
  </rdf:RDF>
 </metadata>
 <defs>
  <style type="text/css">*{stroke-linecap:butt;stroke-linejoin:round;}</style>
 </defs>
 <g id="figure_1">
  <g id="patch_1">
   <path d="M 0 269.93875 
L 412.234063 269.93875 
L 412.234063 0 
L 0 0 
z
" style="fill:#ffffff;"/>
  </g>
  <g id="axes_1">
   <g id="patch_2">
    <path d="M 70.234063 224.64 
L 405.034063 224.64 
L 405.034063 7.2 
L 70.234063 7.2 
z
" style="fill:#ffffff;"/>
   </g>
   <g id="matplotlib.axis_1">
    <g id="xtick_1">
     <g id="line2d_1">
      <defs>
       <path d="M 0 0 
L 0 3.5 
" id="m9f8bf4ce54" style="stroke:#000000;stroke-width:0.8;"/>
      </defs>
      <g>
       <use style="stroke:#000000;stroke-width:0.8;" x="85.452244" xlink:href="#m9f8bf4ce54" y="224.64"/>
      </g>
     </g>
     <g id="text_1">
      <!-- 0 -->
      <g transform="translate(80.998494 242.277813)scale(0.14 -0.14)">
       <defs>
        <path d="M 31.78125 66.40625 
Q 24.171875 66.40625 20.328125 58.90625 
Q 16.5 51.421875 16.5 36.375 
Q 16.5 21.390625 20.328125 13.890625 
Q 24.171875 6.390625 31.78125 6.390625 
Q 39.453125 6.390625 43.28125 13.890625 
Q 47.125 21.390625 47.125 36.375 
Q 47.125 51.421875 43.28125 58.90625 
Q 39.453125 66.40625 31.78125 66.40625 
z
M 31.78125 74.21875 
Q 44.046875 74.21875 50.515625 64.515625 
Q 56.984375 54.828125 56.984375 36.375 
Q 56.984375 17.96875 50.515625 8.265625 
Q 44.046875 -1.421875 31.78125 -1.421875 
Q 19.53125 -1.421875 13.0625 8.265625 
Q 6.59375 17.96875 6.59375 36.375 
Q 6.59375 54.828125 13.0625 64.515625 
Q 19.53125 74.21875 31.78125 74.21875 
z
" id="DejaVuSans-48"/>
       </defs>
       <use xlink:href="#DejaVuSans-48"/>
      </g>
     </g>
    </g>
    <g id="xtick_2">
     <g id="line2d_2">
      <g>
       <use style="stroke:#000000;stroke-width:0.8;" x="136.179517" xlink:href="#m9f8bf4ce54" y="224.64"/>
      </g>
     </g>
     <g id="text_2">
      <!-- 1 -->
      <g transform="translate(131.725767 242.277813)scale(0.14 -0.14)">
       <defs>
        <path d="M 12.40625 8.296875 
L 28.515625 8.296875 
L 28.515625 63.921875 
L 10.984375 60.40625 
L 10.984375 69.390625 
L 28.421875 72.90625 
L 38.28125 72.90625 
L 38.28125 8.296875 
L 54.390625 8.296875 
L 54.390625 0 
L 12.40625 0 
z
" id="DejaVuSans-49"/>
       </defs>
       <use xlink:href="#DejaVuSans-49"/>
      </g>
     </g>
    </g>
    <g id="xtick_3">
     <g id="line2d_3">
      <g>
       <use style="stroke:#000000;stroke-width:0.8;" x="186.90679" xlink:href="#m9f8bf4ce54" y="224.64"/>
      </g>
     </g>
     <g id="text_3">
      <!-- 2 -->
      <g transform="translate(182.45304 242.277813)scale(0.14 -0.14)">
       <defs>
        <path d="M 19.1875 8.296875 
L 53.609375 8.296875 
L 53.609375 0 
L 7.328125 0 
L 7.328125 8.296875 
Q 12.9375 14.109375 22.625 23.890625 
Q 32.328125 33.6875 34.8125 36.53125 
Q 39.546875 41.84375 41.421875 45.53125 
Q 43.3125 49.21875 43.3125 52.78125 
Q 43.3125 58.59375 39.234375 62.25 
Q 35.15625 65.921875 28.609375 65.921875 
Q 23.96875 65.921875 18.8125 64.3125 
Q 13.671875 62.703125 7.8125 59.421875 
L 7.8125 69.390625 
Q 13.765625 71.78125 18.9375 73 
Q 24.125 74.21875 28.421875 74.21875 
Q 39.75 74.21875 46.484375 68.546875 
Q 53.21875 62.890625 53.21875 53.421875 
Q 53.21875 48.921875 51.53125 44.890625 
Q 49.859375 40.875 45.40625 35.40625 
Q 44.1875 33.984375 37.640625 27.21875 
Q 31.109375 20.453125 19.1875 8.296875 
z
" id="DejaVuSans-50"/>
       </defs>
       <use xlink:href="#DejaVuSans-50"/>
      </g>
     </g>
    </g>
    <g id="xtick_4">
     <g id="line2d_4">
      <g>
       <use style="stroke:#000000;stroke-width:0.8;" x="237.634063" xlink:href="#m9f8bf4ce54" y="224.64"/>
      </g>
     </g>
     <g id="text_4">
      <!-- 3 -->
      <g transform="translate(233.180313 242.277813)scale(0.14 -0.14)">
       <defs>
        <path d="M 40.578125 39.3125 
Q 47.65625 37.796875 51.625 33 
Q 55.609375 28.21875 55.609375 21.1875 
Q 55.609375 10.40625 48.1875 4.484375 
Q 40.765625 -1.421875 27.09375 -1.421875 
Q 22.515625 -1.421875 17.65625 -0.515625 
Q 12.796875 0.390625 7.625 2.203125 
L 7.625 11.71875 
Q 11.71875 9.328125 16.59375 8.109375 
Q 21.484375 6.890625 26.8125 6.890625 
Q 36.078125 6.890625 40.9375 10.546875 
Q 45.796875 14.203125 45.796875 21.1875 
Q 45.796875 27.640625 41.28125 31.265625 
Q 36.765625 34.90625 28.71875 34.90625 
L 20.21875 34.90625 
L 20.21875 43.015625 
L 29.109375 43.015625 
Q 36.375 43.015625 40.234375 45.921875 
Q 44.09375 48.828125 44.09375 54.296875 
Q 44.09375 59.90625 40.109375 62.90625 
Q 36.140625 65.921875 28.71875 65.921875 
Q 24.65625 65.921875 20.015625 65.03125 
Q 15.375 64.15625 9.8125 62.3125 
L 9.8125 71.09375 
Q 15.4375 72.65625 20.34375 73.4375 
Q 25.25 74.21875 29.59375 74.21875 
Q 40.828125 74.21875 47.359375 69.109375 
Q 53.90625 64.015625 53.90625 55.328125 
Q 53.90625 49.265625 50.4375 45.09375 
Q 46.96875 40.921875 40.578125 39.3125 
z
" id="DejaVuSans-51"/>
       </defs>
       <use xlink:href="#DejaVuSans-51"/>
      </g>
     </g>
    </g>
    <g id="xtick_5">
     <g id="line2d_5">
      <g>
       <use style="stroke:#000000;stroke-width:0.8;" x="288.361335" xlink:href="#m9f8bf4ce54" y="224.64"/>
      </g>
     </g>
     <g id="text_5">
      <!-- 4 -->
      <g transform="translate(283.907585 242.277813)scale(0.14 -0.14)">
       <defs>
        <path d="M 37.796875 64.3125 
L 12.890625 25.390625 
L 37.796875 25.390625 
z
M 35.203125 72.90625 
L 47.609375 72.90625 
L 47.609375 25.390625 
L 58.015625 25.390625 
L 58.015625 17.1875 
L 47.609375 17.1875 
L 47.609375 0 
L 37.796875 0 
L 37.796875 17.1875 
L 4.890625 17.1875 
L 4.890625 26.703125 
z
" id="DejaVuSans-52"/>
       </defs>
       <use xlink:href="#DejaVuSans-52"/>
      </g>
     </g>
    </g>
    <g id="xtick_6">
     <g id="line2d_6">
      <g>
       <use style="stroke:#000000;stroke-width:0.8;" x="339.088608" xlink:href="#m9f8bf4ce54" y="224.64"/>
      </g>
     </g>
     <g id="text_6">
      <!-- 5 -->
      <g transform="translate(334.634858 242.277813)scale(0.14 -0.14)">
       <defs>
        <path d="M 10.796875 72.90625 
L 49.515625 72.90625 
L 49.515625 64.59375 
L 19.828125 64.59375 
L 19.828125 46.734375 
Q 21.96875 47.46875 24.109375 47.828125 
Q 26.265625 48.1875 28.421875 48.1875 
Q 40.625 48.1875 47.75 41.5 
Q 54.890625 34.8125 54.890625 23.390625 
Q 54.890625 11.625 47.5625 5.09375 
Q 40.234375 -1.421875 26.90625 -1.421875 
Q 22.3125 -1.421875 17.546875 -0.640625 
Q 12.796875 0.140625 7.71875 1.703125 
L 7.71875 11.625 
Q 12.109375 9.234375 16.796875 8.0625 
Q 21.484375 6.890625 26.703125 6.890625 
Q 35.15625 6.890625 40.078125 11.328125 
Q 45.015625 15.765625 45.015625 23.390625 
Q 45.015625 31 40.078125 35.4375 
Q 35.15625 39.890625 26.703125 39.890625 
Q 22.75 39.890625 18.8125 39.015625 
Q 14.890625 38.140625 10.796875 36.28125 
z
" id="DejaVuSans-53"/>
       </defs>
       <use xlink:href="#DejaVuSans-53"/>
      </g>
     </g>
    </g>
    <g id="xtick_7">
     <g id="line2d_7">
      <g>
       <use style="stroke:#000000;stroke-width:0.8;" x="389.815881" xlink:href="#m9f8bf4ce54" y="224.64"/>
      </g>
     </g>
     <g id="text_7">
      <!-- 6 -->
      <g transform="translate(385.362131 242.277813)scale(0.14 -0.14)">
       <defs>
        <path d="M 33.015625 40.375 
Q 26.375 40.375 22.484375 35.828125 
Q 18.609375 31.296875 18.609375 23.390625 
Q 18.609375 15.53125 22.484375 10.953125 
Q 26.375 6.390625 33.015625 6.390625 
Q 39.65625 6.390625 43.53125 10.953125 
Q 47.40625 15.53125 47.40625 23.390625 
Q 47.40625 31.296875 43.53125 35.828125 
Q 39.65625 40.375 33.015625 40.375 
z
M 52.59375 71.296875 
L 52.59375 62.3125 
Q 48.875 64.0625 45.09375 64.984375 
Q 41.3125 65.921875 37.59375 65.921875 
Q 27.828125 65.921875 22.671875 59.328125 
Q 17.53125 52.734375 16.796875 39.40625 
Q 19.671875 43.65625 24.015625 45.921875 
Q 28.375 48.1875 33.59375 48.1875 
Q 44.578125 48.1875 50.953125 41.515625 
Q 57.328125 34.859375 57.328125 23.390625 
Q 57.328125 12.15625 50.6875 5.359375 
Q 44.046875 -1.421875 33.015625 -1.421875 
Q 20.359375 -1.421875 13.671875 8.265625 
Q 6.984375 17.96875 6.984375 36.375 
Q 6.984375 53.65625 15.1875 63.9375 
Q 23.390625 74.21875 37.203125 74.21875 
Q 40.921875 74.21875 44.703125 73.484375 
Q 48.484375 72.75 52.59375 71.296875 
z
" id="DejaVuSans-54"/>
       </defs>
       <use xlink:href="#DejaVuSans-54"/>
      </g>
     </g>
    </g>
    <g id="text_8">
     <!-- $t$ (s) -->
     <g transform="translate(223.494063 259.827188)scale(0.14 -0.14)">
      <defs>
       <path d="M 42.28125 54.6875 
L 40.921875 47.703125 
L 23 47.703125 
L 17.1875 18.015625 
Q 16.890625 16.359375 16.75 15.234375 
Q 16.609375 14.109375 16.609375 13.484375 
Q 16.609375 10.359375 18.484375 8.9375 
Q 20.359375 7.515625 24.515625 7.515625 
L 33.59375 7.515625 
L 32.078125 0 
L 23.484375 0 
Q 15.484375 0 11.546875 3.125 
Q 7.625 6.25 7.625 12.59375 
Q 7.625 13.71875 7.765625 15.0625 
Q 7.90625 16.40625 8.203125 18.015625 
L 14.015625 47.703125 
L 6.390625 47.703125 
L 7.8125 54.6875 
L 15.28125 54.6875 
L 18.3125 70.21875 
L 27.296875 70.21875 
L 24.3125 54.6875 
z
" id="DejaVuSans-Oblique-116"/>
       <path id="DejaVuSans-32"/>
       <path d="M 31 75.875 
Q 24.46875 64.65625 21.28125 53.65625 
Q 18.109375 42.671875 18.109375 31.390625 
Q 18.109375 20.125 21.3125 9.0625 
Q 24.515625 -2 31 -13.1875 
L 23.1875 -13.1875 
Q 15.875 -1.703125 12.234375 9.375 
Q 8.59375 20.453125 8.59375 31.390625 
Q 8.59375 42.28125 12.203125 53.3125 
Q 15.828125 64.359375 23.1875 75.875 
z
" id="DejaVuSans-40"/>
       <path d="M 44.28125 53.078125 
L 44.28125 44.578125 
Q 40.484375 46.53125 36.375 47.5 
Q 32.28125 48.484375 27.875 48.484375 
Q 21.1875 48.484375 17.84375 46.4375 
Q 14.5 44.390625 14.5 40.28125 
Q 14.5 37.15625 16.890625 35.375 
Q 19.28125 33.59375 26.515625 31.984375 
L 29.59375 31.296875 
Q 39.15625 29.25 43.1875 25.515625 
Q 47.21875 21.78125 47.21875 15.09375 
Q 47.21875 7.46875 41.1875 3.015625 
Q 35.15625 -1.421875 24.609375 -1.421875 
Q 20.21875 -1.421875 15.453125 -0.5625 
Q 10.6875 0.296875 5.421875 2 
L 5.421875 11.28125 
Q 10.40625 8.6875 15.234375 7.390625 
Q 20.0625 6.109375 24.8125 6.109375 
Q 31.15625 6.109375 34.5625 8.28125 
Q 37.984375 10.453125 37.984375 14.40625 
Q 37.984375 18.0625 35.515625 20.015625 
Q 33.0625 21.96875 24.703125 23.78125 
L 21.578125 24.515625 
Q 13.234375 26.265625 9.515625 29.90625 
Q 5.8125 33.546875 5.8125 39.890625 
Q 5.8125 47.609375 11.28125 51.796875 
Q 16.75 56 26.8125 56 
Q 31.78125 56 36.171875 55.265625 
Q 40.578125 54.546875 44.28125 53.078125 
z
" id="DejaVuSans-115"/>
       <path d="M 8.015625 75.875 
L 15.828125 75.875 
Q 23.140625 64.359375 26.78125 53.3125 
Q 30.421875 42.28125 30.421875 31.390625 
Q 30.421875 20.453125 26.78125 9.375 
Q 23.140625 -1.703125 15.828125 -13.1875 
L 8.015625 -13.1875 
Q 14.5 -2 17.703125 9.0625 
Q 20.90625 20.125 20.90625 31.390625 
Q 20.90625 42.671875 17.703125 53.65625 
Q 14.5 64.65625 8.015625 75.875 
z
" id="DejaVuSans-41"/>
      </defs>
      <use transform="translate(0 0.125)" xlink:href="#DejaVuSans-Oblique-116"/>
      <use transform="translate(39.208984 0.125)" xlink:href="#DejaVuSans-32"/>
      <use transform="translate(70.996094 0.125)" xlink:href="#DejaVuSans-40"/>
      <use transform="translate(110.009766 0.125)" xlink:href="#DejaVuSans-115"/>
      <use transform="translate(162.109375 0.125)" xlink:href="#DejaVuSans-41"/>
     </g>
    </g>
   </g>
   <g id="matplotlib.axis_2">
    <g id="ytick_1">
     <g id="line2d_8">
      <defs>
       <path d="M 0 0 
L -3.5 0 
" id="mfe64a50320" style="stroke:#000000;stroke-width:0.8;"/>
      </defs>
      <g>
       <use style="stroke:#000000;stroke-width:0.8;" x="70.234063" xlink:href="#mfe64a50320" y="219.56628"/>
      </g>
     </g>
     <g id="text_9">
      <!-- −150 -->
      <g transform="translate(24.78 224.885186)scale(0.14 -0.14)">
       <defs>
        <path d="M 10.59375 35.5 
L 73.1875 35.5 
L 73.1875 27.203125 
L 10.59375 27.203125 
z
" id="DejaVuSans-8722"/>
       </defs>
       <use xlink:href="#DejaVuSans-8722"/>
       <use x="83.789062" xlink:href="#DejaVuSans-49"/>
       <use x="147.412109" xlink:href="#DejaVuSans-53"/>
       <use x="211.035156" xlink:href="#DejaVuSans-48"/>
      </g>
     </g>
    </g>
    <g id="ytick_2">
     <g id="line2d_9">
      <g>
       <use style="stroke:#000000;stroke-width:0.8;" x="70.234063" xlink:href="#mfe64a50320" y="180.106871"/>
      </g>
     </g>
     <g id="text_10">
      <!-- −100 -->
      <g transform="translate(24.78 185.425777)scale(0.14 -0.14)">
       <use xlink:href="#DejaVuSans-8722"/>
       <use x="83.789062" xlink:href="#DejaVuSans-49"/>
       <use x="147.412109" xlink:href="#DejaVuSans-48"/>
       <use x="211.035156" xlink:href="#DejaVuSans-48"/>
      </g>
     </g>
    </g>
    <g id="ytick_3">
     <g id="line2d_10">
      <g>
       <use style="stroke:#000000;stroke-width:0.8;" x="70.234063" xlink:href="#mfe64a50320" y="140.647462"/>
      </g>
     </g>
     <g id="text_11">
      <!-- −50 -->
      <g transform="translate(33.6875 145.966368)scale(0.14 -0.14)">
       <use xlink:href="#DejaVuSans-8722"/>
       <use x="83.789062" xlink:href="#DejaVuSans-53"/>
       <use x="147.412109" xlink:href="#DejaVuSans-48"/>
      </g>
     </g>
    </g>
    <g id="ytick_4">
     <g id="line2d_11">
      <g>
       <use style="stroke:#000000;stroke-width:0.8;" x="70.234063" xlink:href="#mfe64a50320" y="101.188053"/>
      </g>
     </g>
     <g id="text_12">
      <!-- 0 -->
      <g transform="translate(54.326563 106.506959)scale(0.14 -0.14)">
       <use xlink:href="#DejaVuSans-48"/>
      </g>
     </g>
    </g>
    <g id="ytick_5">
     <g id="line2d_12">
      <g>
       <use style="stroke:#000000;stroke-width:0.8;" x="70.234063" xlink:href="#mfe64a50320" y="61.728644"/>
      </g>
     </g>
     <g id="text_13">
      <!-- 50 -->
      <g transform="translate(45.419063 67.04755)scale(0.14 -0.14)">
       <use xlink:href="#DejaVuSans-53"/>
       <use x="63.623047" xlink:href="#DejaVuSans-48"/>
      </g>
     </g>
    </g>
    <g id="ytick_6">
     <g id="line2d_13">
      <g>
       <use style="stroke:#000000;stroke-width:0.8;" x="70.234063" xlink:href="#mfe64a50320" y="22.269235"/>
      </g>
     </g>
     <g id="text_14">
      <!-- 100 -->
      <g transform="translate(36.511563 27.588141)scale(0.14 -0.14)">
       <use xlink:href="#DejaVuSans-49"/>
       <use x="63.623047" xlink:href="#DejaVuSans-48"/>
       <use x="127.246094" xlink:href="#DejaVuSans-48"/>
      </g>
     </g>
    </g>
    <g id="text_15">
     <!-- $y$ ($\mu$m) -->
     <g transform="translate(17.84 139.09)rotate(-90)scale(0.14 -0.14)">
      <defs>
       <path d="M 24.8125 -5.078125 
Q 18.5625 -15.578125 14.625 -18.1875 
Q 10.6875 -20.796875 4.59375 -20.796875 
L -2.484375 -20.796875 
L -0.984375 -13.28125 
L 4.203125 -13.28125 
Q 7.953125 -13.28125 10.59375 -11.234375 
Q 13.234375 -9.1875 16.5 -3.21875 
L 19.28125 2 
L 7.171875 54.6875 
L 16.703125 54.6875 
L 25.78125 12.796875 
L 50.875 54.6875 
L 60.296875 54.6875 
z
" id="DejaVuSans-Oblique-121"/>
       <path d="M -1.3125 -20.796875 
L 13.375 54.6875 
L 22.40625 54.6875 
L 15.765625 20.65625 
Q 15.578125 19.625 15.421875 18.359375 
Q 15.28125 17.09375 15.28125 15.828125 
Q 15.28125 11.28125 18.140625 8.828125 
Q 21 6.390625 26.3125 6.390625 
Q 33.546875 6.390625 37.984375 10.484375 
Q 42.4375 14.59375 44 22.796875 
L 50.203125 54.6875 
L 59.1875 54.6875 
L 51.03125 12.640625 
Q 50.828125 11.71875 50.75 11.03125 
Q 50.6875 10.359375 50.6875 9.8125 
Q 50.6875 8.296875 51.296875 7.59375 
Q 51.90625 6.890625 53.21875 6.890625 
Q 53.71875 6.890625 54.5625 7.125 
Q 55.421875 7.375 56.984375 8.015625 
L 55.609375 0.78125 
Q 53.46875 -0.296875 51.515625 -0.859375 
Q 49.5625 -1.421875 47.703125 -1.421875 
Q 44.484375 -1.421875 42.65625 0.625 
Q 40.828125 2.6875 40.828125 6.296875 
Q 38.09375 2.390625 34.296875 0.484375 
Q 30.515625 -1.421875 25.390625 -1.421875 
Q 20.84375 -1.421875 17.453125 0.671875 
Q 14.0625 2.78125 12.984375 6.203125 
L 7.71875 -20.796875 
z
" id="DejaVuSans-Oblique-956"/>
       <path d="M 52 44.1875 
Q 55.375 50.25 60.0625 53.125 
Q 64.75 56 71.09375 56 
Q 79.640625 56 84.28125 50.015625 
Q 88.921875 44.046875 88.921875 33.015625 
L 88.921875 0 
L 79.890625 0 
L 79.890625 32.71875 
Q 79.890625 40.578125 77.09375 44.375 
Q 74.3125 48.1875 68.609375 48.1875 
Q 61.625 48.1875 57.5625 43.546875 
Q 53.515625 38.921875 53.515625 30.90625 
L 53.515625 0 
L 44.484375 0 
L 44.484375 32.71875 
Q 44.484375 40.625 41.703125 44.40625 
Q 38.921875 48.1875 33.109375 48.1875 
Q 26.21875 48.1875 22.15625 43.53125 
Q 18.109375 38.875 18.109375 30.90625 
L 18.109375 0 
L 9.078125 0 
L 9.078125 54.6875 
L 18.109375 54.6875 
L 18.109375 46.1875 
Q 21.1875 51.21875 25.484375 53.609375 
Q 29.78125 56 35.6875 56 
Q 41.65625 56 45.828125 52.96875 
Q 50 49.953125 52 44.1875 
z
" id="DejaVuSans-109"/>
      </defs>
      <use transform="translate(0 0.125)" xlink:href="#DejaVuSans-Oblique-121"/>
      <use transform="translate(59.179688 0.125)" xlink:href="#DejaVuSans-32"/>
      <use transform="translate(90.966797 0.125)" xlink:href="#DejaVuSans-40"/>
      <use transform="translate(129.980469 0.125)" xlink:href="#DejaVuSans-Oblique-956"/>
      <use transform="translate(193.603516 0.125)" xlink:href="#DejaVuSans-109"/>
      <use transform="translate(291.015625 0.125)" xlink:href="#DejaVuSans-41"/>
     </g>
    </g>
   </g>
   <g id="line2d_14">
    <path clip-path="url(#p63f4130397)" d="M 85.452244 104.344806 
L 92.05229 104.19168 
L 92.813834 104.184765 
L 93.829225 104.122299 
L 96.113856 104.190154 
L 96.8754 104.135161 
L 110.329339 104.038559 
L 111.598578 104.333054 
L 112.61397 104.728192 
L 113.375514 105.224733 
L 114.137057 105.918052 
L 114.644753 106.7187 
L 115.152449 107.958979 
L 115.660145 109.420803 
L 115.913993 110.473705 
L 116.421689 113.994548 
L 116.675536 116.586896 
L 116.929384 122.426029 
L 117.183232 118.163649 
L 117.43708 128.304664 
L 119.721711 130.374339 
L 119.975559 130.143519 
L 120.229407 129.435788 
L 120.483255 128.196148 
L 120.990951 128.441218 
L 121.498647 128.336642 
L 122.514038 127.680332 
L 124.037126 126.555947 
L 124.798669 126.511447 
L 126.321757 126.683123 
L 127.590996 127.976518 
L 128.098692 128.320241 
L 128.606388 128.511667 
L 128.860236 128.819576 
L 129.62178 128.279017 
L 129.875627 128.099823 
L 130.383323 128.103526 
L 131.398715 128.871386 
L 131.652563 129.250441 
L 132.160259 129.435337 
L 133.17565 129.549244 
L 133.683346 129.253405 
L 134.698738 128.294627 
L 135.460281 128.77716 
L 135.714129 128.877464 
L 136.221825 128.760667 
L 136.475673 128.694342 
L 137.744912 129.041409 
L 138.506456 128.998566 
L 139.775696 128.05473 
L 140.283391 128.20405 
L 141.044935 128.85878 
L 142.314175 130.098827 
L 142.568023 130.215169 
L 143.075718 130.085099 
L 143.837262 129.716075 
L 144.852654 129.63536 
L 146.375741 129.619621 
L 146.883437 129.878137 
L 147.644981 130.525078 
L 147.898829 130.623211 
L 148.406524 129.571786 
L 148.660372 129.869283 
L 148.91422 129.510506 
L 149.168068 129.651867 
L 149.421916 129.510393 
L 150.691156 129.603959 
L 151.706547 130.089894 
L 153.229635 131.007232 
L 155.514266 130.430195 
L 157.037353 131.043181 
L 157.798897 131.037192 
L 158.560441 130.800069 
L 158.814288 131.017857 
L 159.068136 130.716931 
L 159.321984 130.750952 
L 159.575832 130.529233 
L 159.82968 130.514762 
L 161.352767 131.145379 
L 162.622007 131.144698 
L 163.129703 130.5201 
L 163.383551 130.005144 
L 163.637399 130.184202 
L 164.398942 130.259149 
L 164.906638 130.412454 
L 165.414334 130.924142 
L 166.175878 131.139119 
L 166.937421 131.197795 
L 167.445117 131.53135 
L 167.952813 132.015081 
L 168.460509 132.242695 
L 169.4759 131.510799 
L 170.74514 131.410241 
L 171.252836 131.390014 
L 172.268227 131.117449 
L 173.283619 131.137238 
L 173.791315 131.075053 
L 175.56825 131.449177 
L 176.583642 131.913704 
L 177.852881 132.005805 
L 178.868273 131.803898 
L 179.629817 131.921347 
L 180.39136 132.222873 
L 180.899056 132.432981 
L 181.914448 132.091086 
L 182.422143 132.111765 
L 182.929839 132.413291 
L 183.691383 132.666707 
L 184.199079 132.79023 
L 184.706775 132.88176 
L 185.468318 132.865847 
L 186.991406 132.59533 
L 187.499102 132.179346 
L 187.752949 131.774542 
L 188.006797 131.733199 
L 188.514493 131.947031 
L 189.276037 131.87307 
L 190.291428 132.559738 
L 191.052972 132.779953 
L 191.814516 133.380146 
L 192.57606 134.114168 
L 193.083755 134.103124 
L 193.591451 133.986249 
L 195.876082 134.303597 
L 196.637626 134.264131 
L 197.906866 133.844327 
L 198.414561 133.964159 
L 199.683801 134.239643 
L 200.95304 134.384331 
L 202.22228 134.944114 
L 203.237672 135.206739 
L 203.491519 135.099902 
L 203.999215 134.474763 
L 204.253063 134.519138 
L 204.506911 134.388634 
L 204.760759 134.38959 
L 205.268455 134.042514 
L 205.776151 133.800646 
L 206.029999 133.539203 
L 206.283846 133.587745 
L 206.791542 134.001429 
L 207.553086 134.935297 
L 208.060782 134.574952 
L 209.330021 134.023618 
L 209.837717 134.35356 
L 210.599261 135.201963 
L 211.106957 135.474677 
L 211.614652 135.547336 
L 211.8685 135.827293 
L 212.122348 135.467408 
L 212.376196 135.416983 
L 212.630044 135.232207 
L 212.883892 135.199766 
L 213.645436 135.701123 
L 214.153131 136.01803 
L 214.406979 135.888464 
L 214.914675 135.934805 
L 215.676219 135.958222 
L 217.199306 135.7977 
L 217.96085 135.837871 
L 219.483937 135.923094 
L 219.737785 135.95537 
L 220.245481 135.531322 
L 220.499329 135.174485 
L 220.753177 135.219089 
L 222.276264 136.16944 
L 223.799352 135.802127 
L 225.068591 134.626912 
L 225.576287 135.226355 
L 226.337831 136.660603 
L 226.591679 136.707108 
L 227.860918 136.162847 
L 228.368614 136.167374 
L 229.130158 135.783524 
L 229.384006 135.747964 
L 229.637854 135.871216 
L 229.891701 135.767979 
L 230.145549 135.961785 
L 230.653245 135.822871 
L 232.43018 135.015412 
L 232.684028 134.639827 
L 233.191724 133.10486 
L 233.445572 132.935354 
L 233.69942 133.051048 
L 234.714812 134.119624 
L 235.730203 133.1451 
L 235.984051 133.229538 
L 236.491747 133.85066 
L 237.507139 134.809229 
L 238.52253 135.051742 
L 240.045618 135.082107 
L 240.807161 135.067196 
L 241.314857 135.10806 
L 243.091792 135.086373 
L 244.61488 135.566577 
L 246.899511 136.322638 
L 247.661055 136.57289 
L 250.199534 137.450352 
L 252.484165 138.265787 
L 253.245709 138.533594 
L 254.514948 139.061151 
L 258.068819 140.451468 
L 258.576515 140.811745 
L 258.830362 140.926648 
L 259.08421 141.164857 
L 259.338058 141.242702 
L 259.591906 141.483027 
L 259.845754 141.569731 
L 260.607298 142.143872 
L 261.114994 142.442335 
L 261.876537 143.012212 
L 262.130385 143.121316 
L 262.638081 143.533245 
L 262.891929 143.649661 
L 263.399625 144.032761 
L 263.653473 144.126255 
L 264.415016 144.691062 
L 264.668864 144.789282 
L 264.922712 145.016477 
L 265.17656 145.093779 
L 265.938104 145.697539 
L 266.191952 145.771367 
L 266.953495 146.357825 
L 267.715039 146.800928 
L 267.968887 147.034822 
L 268.222735 147.094394 
L 268.730431 147.557684 
L 268.984279 147.656785 
L 269.238126 147.911225 
L 269.491974 147.993561 
L 269.99967 148.360631 
L 270.761214 148.812741 
L 271.522758 149.407166 
L 272.030453 149.753883 
L 272.791997 150.176803 
L 273.045845 150.443359 
L 273.807389 150.857111 
L 274.061237 151.091408 
L 274.315085 151.173969 
L 275.076628 151.74377 
L 275.330476 151.843244 
L 276.09202 152.422726 
L 276.345868 152.506513 
L 277.361259 153.272194 
L 277.615107 153.380211 
L 278.122803 153.781005 
L 278.884347 154.217996 
L 279.645891 154.805782 
L 280.153586 155.032517 
L 280.91513 155.606688 
L 281.168978 155.702296 
L 281.930522 156.260419 
L 282.18437 156.34752 
L 283.199761 157.103328 
L 283.961305 157.563495 
L 284.722849 158.089457 
L 284.976697 158.18189 
L 285.73824 158.737861 
L 285.992088 158.844691 
L 286.753632 159.448404 
L 287.515176 159.917706 
L 288.276719 160.47374 
L 289.038263 160.938879 
L 289.799807 161.464216 
L 290.053655 161.545098 
L 291.069046 162.304649 
L 291.322894 162.407172 
L 291.83059 162.786184 
L 292.338286 163.149292 
L 293.099829 163.614416 
L 293.353677 163.865341 
L 293.607525 163.928676 
L 294.369069 164.531784 
L 297.161396 165.726764 
L 302.74605 168.096377 
L 304.269137 168.763294 
L 304.776833 169.007955 
L 305.538377 169.305757 
L 308.076856 170.40796 
L 308.838399 170.787544 
L 316.199989 173.961832 
L 317.976924 174.775867 
L 328.384688 179.614501 
L 329.146232 179.985593 
L 330.415471 180.592188 
L 331.430863 181.071055 
L 333.207798 181.897627 
L 338.538604 184.3265 
L 340.061692 185.007862 
L 355.800262 192.115739 
L 356.561805 192.50373 
L 357.577197 193.040108 
L 358.592589 193.573749 
L 361.131068 194.733214 
L 363.161851 195.729625 
L 364.177242 196.205847 
L 366.715721 197.424325 
L 376.108094 201.766031 
L 377.885029 202.524953 
L 381.4389 204.23155 
L 382.961987 204.827006 
L 384.485075 205.620443 
L 389.815881 208.069042 
L 389.815881 208.069042 
" style="fill:none;stroke:#1f77b4;stroke-linecap:square;stroke-width:1.5;"/>
   </g>
   <g id="line2d_15">
    <path clip-path="url(#p63f4130397)" d="M 85.452244 120.917757 
L 86.721484 120.908988 
L 87.483028 120.9141 
L 89.259963 120.930159 
L 91.798442 121.064028 
L 93.575377 121.02803 
L 101.444662 121.014485 
L 102.206206 121.064252 
L 108.298556 121.026183 
L 109.060099 121.03388 
L 111.598578 121.005954 
L 114.644753 120.9106 
L 116.421689 120.913471 
L 118.960168 120.817083 
L 122.006342 120.855015 
L 123.021734 120.834272 
L 124.544821 120.801657 
L 125.814061 120.863588 
L 127.590996 120.892038 
L 131.398715 120.927331 
L 132.667954 120.976649 
L 133.937194 120.892032 
L 134.952586 120.87205 
L 138.252608 120.859686 
L 140.283391 120.866257 
L 144.344958 120.921604 
L 149.421916 120.854705 
L 156.783505 120.712618 
L 158.052745 120.401242 
L 158.814288 119.930029 
L 159.575832 119.234339 
L 160.337376 118.221323 
L 160.591224 117.674639 
L 160.845072 116.689216 
L 161.352767 114.218245 
L 162.622007 110.579887 
L 163.129703 109.747032 
L 163.891247 109.21395 
L 165.414334 108.672511 
L 169.4759 108.155334 
L 184.960623 107.48 
L 186.229862 107.459623 
L 187.245254 107.440267 
L 206.791542 107.353363 
L 207.806934 107.327846 
L 208.822325 107.365569 
L 229.637854 107.244266 
L 232.937876 107.2688 
L 233.953268 107.285013 
L 236.491747 107.387253 
L 237.253291 107.403144 
L 240.045618 107.46662 
L 242.076401 107.44592 
L 243.599488 107.453203 
L 248.422598 107.430673 
L 250.70723 107.38199 
L 252.484165 107.281637 
L 253.245709 107.245185 
L 254.2611 107.243144 
L 256.545731 107.263461 
L 259.338058 107.188392 
L 262.130385 107.198241 
L 262.638081 107.244239 
L 264.161168 107.196492 
L 271.015062 107.305412 
L 276.853564 107.134268 
L 278.630499 107.152147 
L 279.392043 107.150906 
L 280.407434 107.131861 
L 282.18437 106.723411 
L 283.707457 106.432744 
L 287.515176 106.017466 
L 295.892156 106.266049 
L 297.161396 106.317816 
L 308.584552 106.482559 
L 311.630726 106.542498 
L 315.946141 106.681649 
L 317.723076 106.628719 
L 323.815426 106.671003 
L 325.592361 106.718845 
L 327.369296 106.72326 
L 328.892384 106.701142 
L 329.907775 106.683403 
L 336.507821 106.742093 
L 337.269365 106.764844 
L 339.0463 106.781148 
L 340.823235 106.761092 
L 342.092475 106.868254 
L 348.438672 106.893142 
L 350.977151 106.84221 
L 352.246391 106.907064 
L 368.746505 107.213381 
L 370.015744 107.175494 
L 373.823463 107.174942 
L 374.585006 107.226001 
L 375.34655 107.209905 
L 378.646573 107.222263 
L 382.961987 107.313198 
L 389.815881 107.446512 
L 389.815881 107.446512 
" style="fill:none;stroke:#ff7f0e;stroke-linecap:square;stroke-width:1.5;"/>
   </g>
   <g id="line2d_16">
    <path clip-path="url(#p63f4130397)" d="M 85.452244 112.236687 
L 87.990723 112.225526 
L 89.259963 112.205738 
L 92.05229 112.260236 
L 93.829225 112.198225 
L 94.590769 112.251787 
L 96.621552 112.818724 
L 97.383096 113.312602 
L 98.144639 114.207206 
L 98.906183 115.43981 
L 100.429271 119.569794 
L 100.936966 121.409819 
L 101.190814 121.794539 
L 101.444662 121.851697 
L 101.952358 121.705963 
L 102.460054 121.661806 
L 102.713902 120.879222 
L 103.221598 120.482045 
L 103.475445 122.87044 
L 103.729293 118.099538 
L 103.983141 131.573959 
L 104.744685 131.34713 
L 104.998533 131.539574 
L 105.252381 129.786279 
L 105.506229 129.86847 
L 105.760077 129.629877 
L 106.013925 128.845294 
L 106.267772 128.717172 
L 106.52162 128.344691 
L 106.775468 128.316227 
L 107.029316 128.416873 
L 107.537012 128.294783 
L 108.298556 127.878189 
L 109.060099 127.139885 
L 109.821643 126.560284 
L 111.090883 126.447469 
L 112.360122 126.551709 
L 112.867818 127.269539 
L 113.375514 127.836754 
L 114.898601 128.791858 
L 115.406297 128.277843 
L 116.167841 128.024518 
L 117.944776 129.413512 
L 118.960168 129.603141 
L 119.467863 129.290033 
L 120.483255 128.399071 
L 120.990951 128.518226 
L 121.498647 128.828378 
L 122.514038 128.754741 
L 123.52943 129.026862 
L 124.290974 129.061757 
L 125.560213 128.125882 
L 125.814061 128.100084 
L 126.321757 128.365949 
L 127.083301 129.00924 
L 128.35254 130.217264 
L 128.860236 130.143716 
L 129.62178 129.745358 
L 131.398715 129.634524 
L 132.414106 129.733687 
L 133.683346 130.718977 
L 134.191042 129.597991 
L 134.44489 129.85048 
L 134.698738 129.529621 
L 134.952586 129.627172 
L 135.714129 129.508807 
L 136.475673 129.529544 
L 137.99876 130.354617 
L 138.506456 130.767446 
L 139.268 131.011239 
L 140.283391 130.599917 
L 141.298783 130.384461 
L 143.329566 131.110692 
L 143.837262 131.023126 
L 144.598806 130.888873 
L 144.852654 130.948914 
L 145.106502 130.664097 
L 145.36035 130.71871 
L 145.614197 130.477425 
L 145.868045 130.513839 
L 146.121893 130.739656 
L 146.629589 130.946538 
L 147.391133 131.154885 
L 148.660372 131.176369 
L 149.168068 130.506862 
L 149.421916 130.033958 
L 149.929612 130.232228 
L 150.18346 130.205687 
L 150.945003 130.415729 
L 151.452699 130.97885 
L 152.214243 131.120289 
L 152.975787 131.246004 
L 153.483482 131.631648 
L 153.991178 132.129891 
L 154.498874 132.310894 
L 155.00657 131.813878 
L 155.514266 131.472176 
L 155.768114 131.491485 
L 156.275809 131.326117 
L 157.798897 131.204736 
L 158.306593 131.126473 
L 160.845072 131.234421 
L 161.606615 131.553274 
L 162.114311 131.848471 
L 163.129703 132.01998 
L 163.891247 131.973127 
L 165.160486 131.856994 
L 166.175878 132.257995 
L 166.683573 132.434538 
L 167.698965 132.072712 
L 168.460509 132.181947 
L 168.968205 132.507633 
L 169.4759 132.616899 
L 170.491292 132.923498 
L 172.775923 132.657383 
L 173.029771 132.526057 
L 173.791315 131.62824 
L 174.045163 131.943644 
L 175.060554 131.848747 
L 176.075946 132.548171 
L 176.583642 132.677865 
L 177.091338 132.897948 
L 178.106729 133.8029 
L 178.614425 134.161966 
L 179.629817 134.02677 
L 180.645208 134.166839 
L 181.406752 134.320701 
L 182.422143 134.318132 
L 183.945231 133.910253 
L 185.468318 134.225671 
L 186.48371 134.300495 
L 187.245254 134.579401 
L 188.514493 135.162711 
L 189.022189 135.21734 
L 189.276037 135.080135 
L 189.529885 134.65719 
L 190.037581 134.479273 
L 190.545276 134.324822 
L 192.068364 133.585297 
L 192.57606 134.024243 
L 193.083755 134.975538 
L 193.845299 134.546481 
L 194.860691 133.940262 
L 195.114539 133.923322 
L 195.622234 134.256363 
L 196.383778 135.147648 
L 196.891474 135.453831 
L 197.39917 135.617749 
L 197.653018 135.806302 
L 197.906866 135.458925 
L 198.160713 135.400501 
L 198.414561 135.213879 
L 198.668409 135.167738 
L 199.176105 135.499174 
L 199.937649 135.954141 
L 200.699193 135.899883 
L 201.460736 135.947121 
L 202.729976 135.714758 
L 202.983824 135.846242 
L 203.999215 135.861298 
L 205.776151 135.855972 
L 206.283846 135.163608 
L 206.537694 135.219547 
L 207.299238 135.669389 
L 208.060782 136.248883 
L 208.568478 136.042225 
L 209.583869 135.772716 
L 210.599261 134.860031 
L 210.853109 134.601071 
L 211.360804 135.171531 
L 211.8685 136.058726 
L 212.122348 136.642719 
L 212.376196 136.700598 
L 213.645436 136.142934 
L 214.153131 136.123944 
L 214.406979 135.984429 
L 214.660827 135.697605 
L 214.914675 135.799718 
L 215.168523 135.706473 
L 215.422371 135.91742 
L 215.676219 135.666825 
L 215.930067 136.07782 
L 216.945458 135.667838 
L 217.96085 135.152555 
L 218.214698 135.038436 
L 218.468546 134.753388 
L 219.230089 132.941187 
L 219.483937 132.97877 
L 219.991633 133.566424 
L 220.499329 134.103537 
L 221.260873 133.485911 
L 221.514721 133.165199 
L 221.768569 133.211997 
L 222.78396 134.341317 
L 223.291656 134.814819 
L 224.0532 134.976098 
L 225.322439 135.182606 
L 226.591679 135.04629 
L 227.60707 135.070991 
L 228.368614 134.975418 
L 230.145549 135.296551 
L 232.176333 135.948524 
L 235.476355 137.027535 
L 238.014834 137.891828 
L 242.330249 139.390504 
L 242.837945 139.73335 
L 243.599488 140.299719 
L 243.853336 140.391856 
L 244.107184 140.653183 
L 244.868728 141.062479 
L 245.630271 141.630482 
L 245.884119 141.730837 
L 246.391815 142.060307 
L 246.899511 142.368045 
L 247.914903 143.099711 
L 248.16875 143.187984 
L 248.930294 143.806883 
L 249.945686 144.386598 
L 250.961077 145.164038 
L 251.722621 145.617126 
L 252.484165 146.166647 
L 252.738013 146.284644 
L 253.245709 146.649794 
L 254.2611 147.427125 
L 254.514948 147.48974 
L 254.768796 147.746588 
L 255.276492 147.926056 
L 256.038036 148.510641 
L 256.799579 148.96337 
L 257.307275 149.297095 
L 258.830362 150.428323 
L 259.08421 150.525009 
L 259.591906 150.905623 
L 259.845754 150.981445 
L 260.35345 151.310397 
L 261.622689 152.262911 
L 261.876537 152.332379 
L 262.384233 152.689298 
L 262.638081 152.796158 
L 262.891929 153.045992 
L 263.145777 153.136541 
L 263.399625 153.398578 
L 263.653473 153.494266 
L 263.907321 153.751441 
L 264.161168 153.836988 
L 264.668864 154.197395 
L 265.430408 154.775197 
L 265.684256 154.865882 
L 266.4458 155.427501 
L 266.699647 155.524828 
L 267.461191 156.152805 
L 267.968887 156.339106 
L 268.984279 157.155325 
L 269.99967 157.689547 
L 271.015062 158.480297 
L 271.776606 158.908867 
L 272.538149 159.494829 
L 272.791997 159.616473 
L 273.299693 159.980944 
L 274.568932 160.793206 
L 275.330476 161.350411 
L 276.09202 161.794347 
L 276.345868 162.020979 
L 276.599716 162.094364 
L 277.615107 162.875178 
L 277.868955 162.948959 
L 278.884347 163.701827 
L 279.645891 164.079123 
L 280.153586 164.531003 
L 282.945913 165.642766 
L 285.230544 166.69811 
L 290.307502 169.048078 
L 291.069046 169.383081 
L 293.099829 170.242507 
L 294.369069 170.804427 
L 298.176787 172.494095 
L 299.192179 172.940203 
L 300.461419 173.532023 
L 301.730658 174.073335 
L 305.030681 175.59744 
L 308.330704 177.193932 
L 310.361487 178.062327 
L 313.66151 179.542424 
L 316.707684 180.930135 
L 328.638536 186.565822 
L 329.653928 187.045357 
L 333.207798 188.824275 
L 336.761669 190.437079 
L 337.77706 190.861629 
L 374.331159 207.672769 
L 378.138877 209.366063 
L 379.661965 210.145942 
L 382.200444 211.325601 
L 383.723531 211.938787 
L 384.992771 212.589755 
L 386.008162 213.011544 
L 388.800489 214.344224 
L 389.815881 214.756364 
L 389.815881 214.756364 
" style="fill:none;stroke:#2ca02c;stroke-linecap:square;stroke-width:1.5;"/>
   </g>
   <g id="line2d_17">
    <path clip-path="url(#p63f4130397)" d="M 85.452244 90.928607 
L 86.975332 90.927466 
L 88.244571 90.843984 
L 90.529202 90.777833 
L 91.544594 90.810953 
L 94.590769 90.761085 
L 95.098465 90.754567 
L 97.636944 90.762093 
L 98.398487 90.74769 
L 99.413879 90.746882 
L 101.952358 90.810898 
L 102.96775 90.817008 
L 115.660145 90.776067 
L 116.421689 90.820443 
L 118.452472 90.809168 
L 119.721711 90.801105 
L 125.052517 90.847027 
L 125.814061 90.830555 
L 129.62178 90.857403 
L 131.144867 90.946405 
L 132.667954 90.919143 
L 136.475673 90.940627 
L 149.675764 90.99139 
L 150.945003 91.038618 
L 153.991178 91.581323 
L 155.00657 92.122029 
L 156.275809 93.160465 
L 156.529657 93.251327 
L 157.037353 93.631675 
L 158.814288 95.147148 
L 159.321984 95.597283 
L 159.82968 95.792984 
L 164.145094 96.499242 
L 165.668182 96.482974 
L 166.429726 96.514716 
L 167.191269 96.526201 
L 175.060554 96.553203 
L 176.329794 96.579401 
L 180.39136 96.502903 
L 181.914448 96.516083 
L 182.929839 96.500322 
L 185.976014 96.516906 
L 186.991406 96.524177 
L 189.022189 96.56873 
L 192.068364 96.614794 
L 194.352995 96.637588 
L 197.653018 96.663386 
L 199.176105 96.62421 
L 200.445345 96.689577 
L 203.491519 96.762744 
L 206.283846 96.784622 
L 214.914675 96.814654 
L 215.676219 96.762771 
L 219.483937 96.660954 
L 220.753177 96.663907 
L 222.022416 96.613849 
L 224.0532 96.688128 
L 227.099375 96.687544 
L 228.114766 96.694487 
L 230.145549 96.755022 
L 233.953268 96.784128 
L 234.714812 96.769095 
L 235.984051 96.804189 
L 236.491747 96.748178 
L 236.999443 96.758586 
L 238.014834 96.704363 
L 240.045618 96.729624 
L 261.368841 96.639049 
L 261.876537 96.659168 
L 263.399625 96.697915 
L 265.430408 96.680553 
L 266.191952 96.67864 
L 267.207343 96.706772 
L 268.476583 96.721948 
L 269.238126 96.712254 
L 272.791997 96.713791 
L 278.122803 96.767024 
L 279.392043 96.866188 
L 280.91513 96.966886 
L 281.676674 96.9642 
L 282.692065 97.10595 
L 284.215153 97.15418 
L 285.230544 97.195697 
L 295.892156 97.020667 
L 298.176787 96.98716 
L 300.969114 96.977695 
L 303.253746 96.924606 
L 304.015289 96.913394 
L 306.046073 96.873449 
L 308.330704 96.894671 
L 310.107639 96.82468 
L 310.869183 96.861668 
L 313.153814 96.824455 
L 314.423053 96.81259 
L 315.184597 96.771873 
L 320.769251 96.765497 
L 324.576969 96.7846 
L 332.446254 96.594236 
L 333.969342 96.623375 
L 337.269365 96.513091 
L 338.030908 96.482858 
L 340.823235 96.494279 
L 342.092475 96.422191 
L 344.630954 96.424172 
L 345.392498 96.418702 
L 355.038718 96.235066 
L 356.815653 96.200989 
L 360.115676 96.229801 
L 364.177242 96.252854 
L 366.969569 96.245875 
L 367.731113 96.214429 
L 369.2542 96.284071 
L 370.015744 96.202416 
L 370.52344 96.189232 
L 372.554223 96.174778 
L 373.823463 96.216421 
L 375.854246 96.168595 
L 379.154269 96.019554 
L 381.4389 96.109683 
L 382.961987 96.014319 
L 384.738923 96.044082 
L 387.53125 95.975019 
L 389.815881 95.99648 
L 389.815881 95.99648 
" style="fill:none;stroke:#d62728;stroke-linecap:square;stroke-width:1.5;"/>
   </g>
   <g id="line2d_18">
    <path clip-path="url(#p63f4130397)" d="M 85.452244 97.242112 
L 88.498419 97.338582 
L 91.036898 97.463817 
L 91.798442 97.439873 
L 94.590769 97.402989 
L 96.113856 97.358092 
L 98.398487 97.322066 
L 100.429271 97.267326 
L 101.444662 97.272563 
L 102.460054 97.372225 
L 106.775468 97.321998 
L 108.044708 97.302879 
L 110.329339 97.224211 
L 114.137057 97.275857 
L 114.898601 97.286726 
L 117.183232 97.263451 
L 120.229407 97.33535 
L 122.006342 97.445506 
L 124.290974 97.482225 
L 126.575605 97.388749 
L 132.921802 97.125834 
L 133.429498 97.107197 
L 134.44489 97.152236 
L 136.729521 97.089396 
L 143.329566 97.031819 
L 144.852654 97.083304 
L 145.614197 96.983169 
L 146.629589 96.988499 
L 150.18346 96.987146 
L 155.768114 97.069401 
L 156.783505 97.12613 
L 157.798897 97.117611 
L 160.337376 96.595788 
L 161.860463 95.832485 
L 162.622007 95.168186 
L 163.129703 94.505841 
L 163.637399 93.301875 
L 164.398942 90.893417 
L 164.906638 87.529767 
L 165.160486 84.366808 
L 165.414334 78.947249 
L 165.92203 82.094999 
L 166.175878 78.532859 
L 166.429726 80.335988 
L 166.683573 86.420725 
L 166.937421 80.388351 
L 167.191269 87.295018 
L 167.445117 82.378107 
L 167.698965 71.369909 
L 167.952813 70.517446 
L 168.206661 73.705666 
L 168.968205 73.103481 
L 169.4759 73.747438 
L 169.729748 74.070329 
L 170.237444 73.9465 
L 170.74514 74.12392 
L 171.506684 74.456856 
L 173.029771 75.813848 
L 173.791315 75.897341 
L 175.314402 75.906425 
L 175.822098 75.326631 
L 176.075946 74.804118 
L 177.091338 74.113805 
L 177.345185 74.078799 
L 178.106729 73.653621 
L 178.614425 74.131266 
L 179.375969 74.34681 
L 180.39136 73.59756 
L 180.899056 73.010554 
L 181.914448 72.741176 
L 182.422143 72.905671 
L 183.183687 73.501922 
L 183.691383 73.986802 
L 183.945231 73.973226 
L 184.706775 73.517631 
L 185.21447 73.642286 
L 185.722166 73.597831 
L 186.229862 73.441191 
L 187.245254 73.316274 
L 187.499102 73.346207 
L 188.768341 74.337144 
L 189.022189 74.325505 
L 189.529885 73.976845 
L 190.291428 73.312793 
L 191.560668 72.129899 
L 192.322212 72.389805 
L 192.829908 72.655509 
L 195.622234 72.645481 
L 196.891474 71.772592 
L 197.39917 72.8011 
L 197.653018 72.467545 
L 197.906866 72.940013 
L 198.160713 72.634633 
L 198.414561 72.925207 
L 199.683801 72.831079 
L 200.699193 72.352581 
L 201.206888 71.964639 
L 201.714584 71.607515 
L 202.22228 71.331172 
L 204.253063 72.037867 
L 204.760759 71.828032 
L 205.522303 71.461247 
L 206.537694 71.275834 
L 207.806934 71.468611 
L 208.060782 71.510491 
L 208.31463 71.703733 
L 208.568478 71.709732 
L 208.822325 71.924011 
L 210.091565 71.289448 
L 211.614652 71.145858 
L 211.8685 71.284109 
L 212.630044 72.285739 
L 213.13774 72.149183 
L 213.899284 72.043948 
L 214.660827 71.334686 
L 215.422371 71.219574 
L 215.930067 71.210941 
L 216.183915 71.123 
L 217.453154 70.124474 
L 218.722394 70.888133 
L 219.483937 71.053549 
L 219.991633 70.988281 
L 222.022416 71.268593 
L 222.78396 71.248146 
L 223.799352 71.207667 
L 224.814743 70.799518 
L 225.322439 70.531397 
L 226.083983 70.395245 
L 226.845527 70.398202 
L 228.114766 70.589163 
L 229.130158 70.209031 
L 229.637854 69.951535 
L 230.145549 70.083377 
L 230.653245 70.318152 
L 231.414789 70.28656 
L 231.668637 70.009739 
L 232.43018 69.804785 
L 233.445572 69.482659 
L 234.96866 69.526861 
L 236.237899 69.984273 
L 236.745595 70.752522 
L 237.253291 70.424792 
L 238.268682 70.47464 
L 239.030226 69.863107 
L 239.79177 69.621945 
L 240.299465 69.325478 
L 241.061009 68.70168 
L 241.568705 68.267027 
L 242.076401 68.235998 
L 243.091792 68.355467 
L 244.61488 68.051516 
L 245.376424 68.107318 
L 245.884119 68.1705 
L 247.153359 68.524589 
L 248.16875 68.178685 
L 248.930294 68.15206 
L 249.43799 68.113962 
L 249.945686 68.01379 
L 250.453382 67.750465 
L 250.70723 67.702474 
L 251.468773 67.3089 
L 252.230317 67.142214 
L 252.484165 67.319378 
L 252.738013 67.727694 
L 252.991861 67.882227 
L 253.753404 68.042386 
L 255.022644 68.90515 
L 255.53034 68.584128 
L 256.038036 67.879024 
L 256.291883 67.326231 
L 257.053427 67.807787 
L 258.068819 68.468485 
L 258.322667 68.471724 
L 258.830362 68.109327 
L 259.591906 67.189154 
L 260.099602 66.887213 
L 260.607298 66.79432 
L 260.861146 66.551268 
L 261.114994 66.968762 
L 261.368841 66.940279 
L 261.622689 67.16343 
L 261.876537 67.17239 
L 262.130385 66.91056 
L 262.384233 66.875298 
L 262.638081 66.619343 
L 264.668864 66.455993 
L 265.17656 66.507538 
L 265.938104 66.719631 
L 266.191952 66.498962 
L 266.699647 66.539028 
L 267.207343 66.510776 
L 267.715039 66.560423 
L 268.984279 66.584048 
L 269.491974 67.280828 
L 271.26891 66.146392 
L 272.030453 66.371742 
L 272.538149 66.50683 
L 273.045845 66.857873 
L 274.061237 67.76927 
L 274.568932 67.214556 
L 275.076628 66.16763 
L 275.330476 65.68084 
L 275.838172 65.827735 
L 276.599716 66.288273 
L 277.107412 66.212221 
L 277.615107 66.54568 
L 277.868955 66.716995 
L 278.122803 66.519245 
L 278.376651 66.689129 
L 278.630499 66.438683 
L 278.884347 66.612901 
L 279.138195 66.417598 
L 279.645891 66.581145 
L 280.153586 66.854632 
L 281.422826 67.446921 
L 281.676674 67.916031 
L 282.18437 69.440281 
L 282.438217 69.494419 
L 282.945913 68.970997 
L 283.453609 68.304972 
L 283.707457 68.253101 
L 283.961305 68.612127 
L 284.469001 69.030912 
L 284.722849 69.246338 
L 284.976697 69.104273 
L 285.992088 67.904313 
L 286.499784 67.529846 
L 287.261328 67.375228 
L 288.530567 67.219371 
L 292.084438 67.336545 
L 293.099829 67.15526 
L 294.876765 66.635242 
L 297.415244 65.983777 
L 301.984506 64.495086 
L 305.030681 63.417183 
L 305.792225 62.808152 
L 306.046073 62.732748 
L 306.553768 62.385278 
L 307.315312 61.926415 
L 308.076856 61.338231 
L 308.584552 61.004023 
L 309.092247 60.631272 
L 310.615335 59.716427 
L 310.869183 59.445153 
L 311.123031 59.370438 
L 311.884574 58.821549 
L 312.138422 58.748344 
L 313.407662 57.767973 
L 314.169205 57.341504 
L 314.423053 57.097984 
L 314.676901 57.017509 
L 315.438445 56.425806 
L 315.692293 56.325707 
L 315.946141 56.083382 
L 316.199989 56.001597 
L 316.961532 55.386003 
L 317.21538 55.305326 
L 317.723076 54.909287 
L 318.48462 54.468185 
L 319.246163 53.900151 
L 319.500011 53.82133 
L 320.515403 53.007046 
L 320.769251 52.916764 
L 321.023099 52.698112 
L 321.276947 52.639372 
L 321.784643 52.255414 
L 322.546186 51.791921 
L 322.800034 51.558653 
L 323.053882 51.489667 
L 323.30773 51.234246 
L 323.561578 51.137925 
L 324.576969 50.305497 
L 325.084665 50.109054 
L 325.846209 49.564233 
L 326.100057 49.437385 
L 326.353905 49.180297 
L 326.607753 49.129995 
L 327.369296 48.53818 
L 328.13084 48.086544 
L 328.638536 47.69315 
L 328.892384 47.608003 
L 329.40008 47.294387 
L 330.415471 46.553713 
L 330.669319 46.464983 
L 331.684711 45.709752 
L 331.938559 45.607434 
L 332.700102 45.006587 
L 332.95395 44.899934 
L 333.461646 44.460863 
L 334.730886 43.662624 
L 335.238581 43.253554 
L 335.746277 42.949476 
L 336.507821 42.531112 
L 337.77706 41.632371 
L 338.030908 41.52025 
L 338.792452 40.897766 
L 339.807844 40.33578 
L 341.330931 39.249835 
L 342.092475 38.80783 
L 343.107866 38.113169 
L 343.361714 38.034295 
L 344.630954 37.149836 
L 364.938786 28.432227 
L 365.954178 27.984941 
L 366.461874 27.738052 
L 379.408117 21.967231 
L 381.185052 21.189709 
L 384.231227 19.810847 
L 385.246618 19.291635 
L 389.815881 17.083636 
L 389.815881 17.083636 
" style="fill:none;stroke:#9467bd;stroke-linecap:square;stroke-width:1.5;"/>
   </g>
   <g id="patch_3">
    <path d="M 70.234063 224.64 
L 70.234063 7.2 
" style="fill:none;stroke:#000000;stroke-linecap:square;stroke-linejoin:miter;stroke-width:0.8;"/>
   </g>
   <g id="patch_4">
    <path d="M 405.034063 224.64 
L 405.034063 7.2 
" style="fill:none;stroke:#000000;stroke-linecap:square;stroke-linejoin:miter;stroke-width:0.8;"/>
   </g>
   <g id="patch_5">
    <path d="M 70.234063 224.64 
L 405.034063 224.64 
" style="fill:none;stroke:#000000;stroke-linecap:square;stroke-linejoin:miter;stroke-width:0.8;"/>
   </g>
   <g id="patch_6">
    <path d="M 70.234063 7.2 
L 405.034063 7.2 
" style="fill:none;stroke:#000000;stroke-linecap:square;stroke-linejoin:miter;stroke-width:0.8;"/>
   </g>
   <g id="legend_1">
    <g id="patch_7">
     <path d="M 77.234063 88.590625 
L 155.721563 88.590625 
Q 157.721563 88.590625 157.721563 86.590625 
L 157.721563 14.2 
Q 157.721563 12.2 155.721563 12.2 
L 77.234063 12.2 
Q 75.234063 12.2 75.234063 14.2 
L 75.234063 86.590625 
Q 75.234063 88.590625 77.234063 88.590625 
z
" style="fill:#ffffff;opacity:0.8;stroke:#cccccc;stroke-linejoin:miter;"/>
    </g>
    <g id="line2d_19">
     <path d="M 79.234063 20.298438 
L 99.234063 20.298438 
" style="fill:none;stroke:#1f77b4;stroke-linecap:square;stroke-width:1.5;"/>
    </g>
    <g id="line2d_20"/>
    <g id="text_16">
     <!-- Particle 0 -->
     <g transform="translate(107.234063 23.798438)scale(0.1 -0.1)">
      <defs>
       <path d="M 19.671875 64.796875 
L 19.671875 37.40625 
L 32.078125 37.40625 
Q 38.96875 37.40625 42.71875 40.96875 
Q 46.484375 44.53125 46.484375 51.125 
Q 46.484375 57.671875 42.71875 61.234375 
Q 38.96875 64.796875 32.078125 64.796875 
z
M 9.8125 72.90625 
L 32.078125 72.90625 
Q 44.34375 72.90625 50.609375 67.359375 
Q 56.890625 61.8125 56.890625 51.125 
Q 56.890625 40.328125 50.609375 34.8125 
Q 44.34375 29.296875 32.078125 29.296875 
L 19.671875 29.296875 
L 19.671875 0 
L 9.8125 0 
z
" id="DejaVuSans-80"/>
       <path d="M 34.28125 27.484375 
Q 23.390625 27.484375 19.1875 25 
Q 14.984375 22.515625 14.984375 16.5 
Q 14.984375 11.71875 18.140625 8.90625 
Q 21.296875 6.109375 26.703125 6.109375 
Q 34.1875 6.109375 38.703125 11.40625 
Q 43.21875 16.703125 43.21875 25.484375 
L 43.21875 27.484375 
z
M 52.203125 31.203125 
L 52.203125 0 
L 43.21875 0 
L 43.21875 8.296875 
Q 40.140625 3.328125 35.546875 0.953125 
Q 30.953125 -1.421875 24.3125 -1.421875 
Q 15.921875 -1.421875 10.953125 3.296875 
Q 6 8.015625 6 15.921875 
Q 6 25.140625 12.171875 29.828125 
Q 18.359375 34.515625 30.609375 34.515625 
L 43.21875 34.515625 
L 43.21875 35.40625 
Q 43.21875 41.609375 39.140625 45 
Q 35.0625 48.390625 27.6875 48.390625 
Q 23 48.390625 18.546875 47.265625 
Q 14.109375 46.140625 10.015625 43.890625 
L 10.015625 52.203125 
Q 14.9375 54.109375 19.578125 55.046875 
Q 24.21875 56 28.609375 56 
Q 40.484375 56 46.34375 49.84375 
Q 52.203125 43.703125 52.203125 31.203125 
z
" id="DejaVuSans-97"/>
       <path d="M 41.109375 46.296875 
Q 39.59375 47.171875 37.8125 47.578125 
Q 36.03125 48 33.890625 48 
Q 26.265625 48 22.1875 43.046875 
Q 18.109375 38.09375 18.109375 28.8125 
L 18.109375 0 
L 9.078125 0 
L 9.078125 54.6875 
L 18.109375 54.6875 
L 18.109375 46.1875 
Q 20.953125 51.171875 25.484375 53.578125 
Q 30.03125 56 36.53125 56 
Q 37.453125 56 38.578125 55.875 
Q 39.703125 55.765625 41.0625 55.515625 
z
" id="DejaVuSans-114"/>
       <path d="M 18.3125 70.21875 
L 18.3125 54.6875 
L 36.8125 54.6875 
L 36.8125 47.703125 
L 18.3125 47.703125 
L 18.3125 18.015625 
Q 18.3125 11.328125 20.140625 9.421875 
Q 21.96875 7.515625 27.59375 7.515625 
L 36.8125 7.515625 
L 36.8125 0 
L 27.59375 0 
Q 17.1875 0 13.234375 3.875 
Q 9.28125 7.765625 9.28125 18.015625 
L 9.28125 47.703125 
L 2.6875 47.703125 
L 2.6875 54.6875 
L 9.28125 54.6875 
L 9.28125 70.21875 
z
" id="DejaVuSans-116"/>
       <path d="M 9.421875 54.6875 
L 18.40625 54.6875 
L 18.40625 0 
L 9.421875 0 
z
M 9.421875 75.984375 
L 18.40625 75.984375 
L 18.40625 64.59375 
L 9.421875 64.59375 
z
" id="DejaVuSans-105"/>
       <path d="M 48.78125 52.59375 
L 48.78125 44.1875 
Q 44.96875 46.296875 41.140625 47.34375 
Q 37.3125 48.390625 33.40625 48.390625 
Q 24.65625 48.390625 19.8125 42.84375 
Q 14.984375 37.3125 14.984375 27.296875 
Q 14.984375 17.28125 19.8125 11.734375 
Q 24.65625 6.203125 33.40625 6.203125 
Q 37.3125 6.203125 41.140625 7.25 
Q 44.96875 8.296875 48.78125 10.40625 
L 48.78125 2.09375 
Q 45.015625 0.34375 40.984375 -0.53125 
Q 36.96875 -1.421875 32.421875 -1.421875 
Q 20.0625 -1.421875 12.78125 6.34375 
Q 5.515625 14.109375 5.515625 27.296875 
Q 5.515625 40.671875 12.859375 48.328125 
Q 20.21875 56 33.015625 56 
Q 37.15625 56 41.109375 55.140625 
Q 45.0625 54.296875 48.78125 52.59375 
z
" id="DejaVuSans-99"/>
       <path d="M 9.421875 75.984375 
L 18.40625 75.984375 
L 18.40625 0 
L 9.421875 0 
z
" id="DejaVuSans-108"/>
       <path d="M 56.203125 29.59375 
L 56.203125 25.203125 
L 14.890625 25.203125 
Q 15.484375 15.921875 20.484375 11.0625 
Q 25.484375 6.203125 34.421875 6.203125 
Q 39.59375 6.203125 44.453125 7.46875 
Q 49.3125 8.734375 54.109375 11.28125 
L 54.109375 2.78125 
Q 49.265625 0.734375 44.1875 -0.34375 
Q 39.109375 -1.421875 33.890625 -1.421875 
Q 20.796875 -1.421875 13.15625 6.1875 
Q 5.515625 13.8125 5.515625 26.8125 
Q 5.515625 40.234375 12.765625 48.109375 
Q 20.015625 56 32.328125 56 
Q 43.359375 56 49.78125 48.890625 
Q 56.203125 41.796875 56.203125 29.59375 
z
M 47.21875 32.234375 
Q 47.125 39.59375 43.09375 43.984375 
Q 39.0625 48.390625 32.421875 48.390625 
Q 24.90625 48.390625 20.390625 44.140625 
Q 15.875 39.890625 15.1875 32.171875 
z
" id="DejaVuSans-101"/>
      </defs>
      <use xlink:href="#DejaVuSans-80"/>
      <use x="55.802734" xlink:href="#DejaVuSans-97"/>
      <use x="117.082031" xlink:href="#DejaVuSans-114"/>
      <use x="158.195312" xlink:href="#DejaVuSans-116"/>
      <use x="197.404297" xlink:href="#DejaVuSans-105"/>
      <use x="225.1875" xlink:href="#DejaVuSans-99"/>
      <use x="280.167969" xlink:href="#DejaVuSans-108"/>
      <use x="307.951172" xlink:href="#DejaVuSans-101"/>
      <use x="369.474609" xlink:href="#DejaVuSans-32"/>
      <use x="401.261719" xlink:href="#DejaVuSans-48"/>
     </g>
    </g>
    <g id="line2d_21">
     <path d="M 79.234063 34.976563 
L 99.234063 34.976563 
" style="fill:none;stroke:#ff7f0e;stroke-linecap:square;stroke-width:1.5;"/>
    </g>
    <g id="line2d_22"/>
    <g id="text_17">
     <!-- Particle 1 -->
     <g transform="translate(107.234063 38.476563)scale(0.1 -0.1)">
      <use xlink:href="#DejaVuSans-80"/>
      <use x="55.802734" xlink:href="#DejaVuSans-97"/>
      <use x="117.082031" xlink:href="#DejaVuSans-114"/>
      <use x="158.195312" xlink:href="#DejaVuSans-116"/>
      <use x="197.404297" xlink:href="#DejaVuSans-105"/>
      <use x="225.1875" xlink:href="#DejaVuSans-99"/>
      <use x="280.167969" xlink:href="#DejaVuSans-108"/>
      <use x="307.951172" xlink:href="#DejaVuSans-101"/>
      <use x="369.474609" xlink:href="#DejaVuSans-32"/>
      <use x="401.261719" xlink:href="#DejaVuSans-49"/>
     </g>
    </g>
    <g id="line2d_23">
     <path d="M 79.234063 49.654688 
L 99.234063 49.654688 
" style="fill:none;stroke:#2ca02c;stroke-linecap:square;stroke-width:1.5;"/>
    </g>
    <g id="line2d_24"/>
    <g id="text_18">
     <!-- Particle 2 -->
     <g transform="translate(107.234063 53.154688)scale(0.1 -0.1)">
      <use xlink:href="#DejaVuSans-80"/>
      <use x="55.802734" xlink:href="#DejaVuSans-97"/>
      <use x="117.082031" xlink:href="#DejaVuSans-114"/>
      <use x="158.195312" xlink:href="#DejaVuSans-116"/>
      <use x="197.404297" xlink:href="#DejaVuSans-105"/>
      <use x="225.1875" xlink:href="#DejaVuSans-99"/>
      <use x="280.167969" xlink:href="#DejaVuSans-108"/>
      <use x="307.951172" xlink:href="#DejaVuSans-101"/>
      <use x="369.474609" xlink:href="#DejaVuSans-32"/>
      <use x="401.261719" xlink:href="#DejaVuSans-50"/>
     </g>
    </g>
    <g id="line2d_25">
     <path d="M 79.234063 64.332813 
L 99.234063 64.332813 
" style="fill:none;stroke:#d62728;stroke-linecap:square;stroke-width:1.5;"/>
    </g>
    <g id="line2d_26"/>
    <g id="text_19">
     <!-- Particle 3 -->
     <g transform="translate(107.234063 67.832813)scale(0.1 -0.1)">
      <use xlink:href="#DejaVuSans-80"/>
      <use x="55.802734" xlink:href="#DejaVuSans-97"/>
      <use x="117.082031" xlink:href="#DejaVuSans-114"/>
      <use x="158.195312" xlink:href="#DejaVuSans-116"/>
      <use x="197.404297" xlink:href="#DejaVuSans-105"/>
      <use x="225.1875" xlink:href="#DejaVuSans-99"/>
      <use x="280.167969" xlink:href="#DejaVuSans-108"/>
      <use x="307.951172" xlink:href="#DejaVuSans-101"/>
      <use x="369.474609" xlink:href="#DejaVuSans-32"/>
      <use x="401.261719" xlink:href="#DejaVuSans-51"/>
     </g>
    </g>
    <g id="line2d_27">
     <path d="M 79.234063 79.010938 
L 99.234063 79.010938 
" style="fill:none;stroke:#9467bd;stroke-linecap:square;stroke-width:1.5;"/>
    </g>
    <g id="line2d_28"/>
    <g id="text_20">
     <!-- Particle 4 -->
     <g transform="translate(107.234063 82.510938)scale(0.1 -0.1)">
      <use xlink:href="#DejaVuSans-80"/>
      <use x="55.802734" xlink:href="#DejaVuSans-97"/>
      <use x="117.082031" xlink:href="#DejaVuSans-114"/>
      <use x="158.195312" xlink:href="#DejaVuSans-116"/>
      <use x="197.404297" xlink:href="#DejaVuSans-105"/>
      <use x="225.1875" xlink:href="#DejaVuSans-99"/>
      <use x="280.167969" xlink:href="#DejaVuSans-108"/>
      <use x="307.951172" xlink:href="#DejaVuSans-101"/>
      <use x="369.474609" xlink:href="#DejaVuSans-32"/>
      <use x="401.261719" xlink:href="#DejaVuSans-52"/>
     </g>
    </g>
   </g>
  </g>
 </g>
 <defs>
  <clipPath id="p63f4130397">
   <rect height="217.44" width="334.8" x="70.234063" y="7.2"/>
  </clipPath>
 </defs>
</svg>
